<mxfile host="app.diagrams.net" agent="Mozilla/5.0 (Windows NT 10.0; Win64; x64) AppleWebKit/537.36 (KHTML, like Gecko) Chrome/133.0.0.0 Safari/537.36" version="26.0.16">
  <diagram name="Página-1" id="hRBkCHKDBnYFsqpOzOEp">
    <mxGraphModel dx="578" dy="876" grid="1" gridSize="10" guides="1" tooltips="1" connect="1" arrows="1" fold="1" page="1" pageScale="1" pageWidth="827" pageHeight="1169" math="0" shadow="0">
      <root>
        <mxCell id="0" />
        <mxCell id="1" parent="0" />
        <mxCell id="04BgacQnCNHLsLhZBk7w-1" value="" style="edgeStyle=orthogonalEdgeStyle;rounded=0;orthogonalLoop=1;jettySize=auto;html=1;" edge="1" parent="1" source="04BgacQnCNHLsLhZBk7w-2" target="04BgacQnCNHLsLhZBk7w-4">
          <mxGeometry relative="1" as="geometry" />
        </mxCell>
        <mxCell id="04BgacQnCNHLsLhZBk7w-2" value="&lt;h1 style=&quot;font-size: 20px;&quot;&gt;Inicio&lt;/h1&gt;" style="ellipse;whiteSpace=wrap;html=1;fontSize=20;fontStyle=1;fillColor=#d5e8d4;strokeColor=#82b366;" vertex="1" parent="1">
          <mxGeometry x="40" y="40" width="120" height="80" as="geometry" />
        </mxCell>
        <mxCell id="04BgacQnCNHLsLhZBk7w-3" style="edgeStyle=orthogonalEdgeStyle;rounded=0;orthogonalLoop=1;jettySize=auto;html=1;" edge="1" parent="1" source="04BgacQnCNHLsLhZBk7w-4" target="04BgacQnCNHLsLhZBk7w-6">
          <mxGeometry relative="1" as="geometry" />
        </mxCell>
        <mxCell id="04BgacQnCNHLsLhZBk7w-4" value="Cadastrar Tipo&lt;div&gt;(abrir modal)&lt;/div&gt;" style="rounded=0;whiteSpace=wrap;html=1;fontStyle=1;fillColor=#dae8fc;strokeColor=#6c8ebf;" vertex="1" parent="1">
          <mxGeometry x="200" y="50" width="120" height="60" as="geometry" />
        </mxCell>
        <mxCell id="04BgacQnCNHLsLhZBk7w-5" value="" style="edgeStyle=orthogonalEdgeStyle;rounded=0;orthogonalLoop=1;jettySize=auto;html=1;" edge="1" parent="1" source="04BgacQnCNHLsLhZBk7w-6" target="04BgacQnCNHLsLhZBk7w-25">
          <mxGeometry relative="1" as="geometry" />
        </mxCell>
        <mxCell id="04BgacQnCNHLsLhZBk7w-6" value="Modal de cadastro de Tipo" style="swimlane;fontStyle=1;childLayout=stackLayout;horizontal=1;startSize=30;horizontalStack=0;resizeParent=1;resizeParentMax=0;resizeLast=0;collapsible=1;marginBottom=0;whiteSpace=wrap;html=1;fillColor=#dae8fc;strokeColor=#6c8ebf;" vertex="1" parent="1">
          <mxGeometry x="360" y="45" width="160" height="70" as="geometry" />
        </mxCell>
        <mxCell id="04BgacQnCNHLsLhZBk7w-7" value="Descrição do Tipo * (obrigatório)" style="text;strokeColor=none;fillColor=none;align=left;verticalAlign=middle;spacingLeft=4;spacingRight=4;overflow=hidden;points=[[0,0.5],[1,0.5]];portConstraint=eastwest;rotatable=0;whiteSpace=wrap;html=1;fontStyle=1" vertex="1" parent="04BgacQnCNHLsLhZBk7w-6">
          <mxGeometry y="30" width="160" height="40" as="geometry" />
        </mxCell>
        <mxCell id="04BgacQnCNHLsLhZBk7w-8" value="" style="edgeStyle=orthogonalEdgeStyle;rounded=0;orthogonalLoop=1;jettySize=auto;html=1;" edge="1" parent="1" source="04BgacQnCNHLsLhZBk7w-9" target="04BgacQnCNHLsLhZBk7w-12">
          <mxGeometry relative="1" as="geometry" />
        </mxCell>
        <mxCell id="04BgacQnCNHLsLhZBk7w-9" value="Validação para verificar se o campo esta vazio" style="whiteSpace=wrap;html=1;fillColor=#dae8fc;strokeColor=#6c8ebf;fontStyle=1;startSize=30;" vertex="1" parent="1">
          <mxGeometry x="380" y="260" width="120" height="60" as="geometry" />
        </mxCell>
        <mxCell id="04BgacQnCNHLsLhZBk7w-10" value="" style="edgeStyle=orthogonalEdgeStyle;rounded=0;orthogonalLoop=1;jettySize=auto;html=1;" edge="1" parent="1" source="04BgacQnCNHLsLhZBk7w-12" target="04BgacQnCNHLsLhZBk7w-13">
          <mxGeometry relative="1" as="geometry" />
        </mxCell>
        <mxCell id="04BgacQnCNHLsLhZBk7w-114" style="edgeStyle=orthogonalEdgeStyle;rounded=0;orthogonalLoop=1;jettySize=auto;html=1;entryX=1;entryY=0.5;entryDx=0;entryDy=0;" edge="1" parent="1" source="04BgacQnCNHLsLhZBk7w-12" target="04BgacQnCNHLsLhZBk7w-19">
          <mxGeometry relative="1" as="geometry" />
        </mxCell>
        <mxCell id="04BgacQnCNHLsLhZBk7w-12" value="Verificação" style="rhombus;whiteSpace=wrap;html=1;fillColor=#fff2cc;strokeColor=#d6b656;fontStyle=1;startSize=30;" vertex="1" parent="1">
          <mxGeometry x="400" y="350" width="80" height="80" as="geometry" />
        </mxCell>
        <mxCell id="04BgacQnCNHLsLhZBk7w-13" value="Alerta informando para preencher o campo obrigatório" style="whiteSpace=wrap;html=1;fillColor=#f8cecc;strokeColor=#b85450;fontStyle=1;startSize=30;" vertex="1" parent="1">
          <mxGeometry x="520" y="360" width="120" height="60" as="geometry" />
        </mxCell>
        <mxCell id="04BgacQnCNHLsLhZBk7w-14" value="Não" style="rounded=0;whiteSpace=wrap;html=1;fillColor=#f8cecc;strokeColor=#b85450;fontStyle=1" vertex="1" parent="1">
          <mxGeometry x="480" y="360" width="30" height="20" as="geometry" />
        </mxCell>
        <mxCell id="04BgacQnCNHLsLhZBk7w-116" style="edgeStyle=orthogonalEdgeStyle;rounded=0;orthogonalLoop=1;jettySize=auto;html=1;" edge="1" parent="1" source="04BgacQnCNHLsLhZBk7w-16" target="04BgacQnCNHLsLhZBk7w-22">
          <mxGeometry relative="1" as="geometry" />
        </mxCell>
        <mxCell id="04BgacQnCNHLsLhZBk7w-16" value="Alerta de tipo cadastrado" style="whiteSpace=wrap;html=1;fillColor=#d5e8d4;strokeColor=#82b366;fontStyle=1;startSize=30;" vertex="1" parent="1">
          <mxGeometry x="80" y="360" width="120" height="60" as="geometry" />
        </mxCell>
        <mxCell id="04BgacQnCNHLsLhZBk7w-17" value="Sim" style="rounded=0;whiteSpace=wrap;html=1;fillColor=#d5e8d4;strokeColor=#82b366;fontStyle=1" vertex="1" parent="1">
          <mxGeometry x="370" y="360" width="30" height="20" as="geometry" />
        </mxCell>
        <mxCell id="04BgacQnCNHLsLhZBk7w-115" style="edgeStyle=orthogonalEdgeStyle;rounded=0;orthogonalLoop=1;jettySize=auto;html=1;" edge="1" parent="1" source="04BgacQnCNHLsLhZBk7w-19" target="04BgacQnCNHLsLhZBk7w-16">
          <mxGeometry relative="1" as="geometry" />
        </mxCell>
        <mxCell id="04BgacQnCNHLsLhZBk7w-19" value="Insert da informação no banco de dados" style="whiteSpace=wrap;html=1;fillColor=#d5e8d4;strokeColor=#82b366;fontStyle=1;startSize=30;" vertex="1" parent="1">
          <mxGeometry x="240" y="360" width="120" height="60" as="geometry" />
        </mxCell>
        <mxCell id="04BgacQnCNHLsLhZBk7w-20" style="edgeStyle=orthogonalEdgeStyle;rounded=0;orthogonalLoop=1;jettySize=auto;html=1;entryX=0.5;entryY=0;entryDx=0;entryDy=0;" edge="1" parent="1" source="04BgacQnCNHLsLhZBk7w-22" target="04BgacQnCNHLsLhZBk7w-30">
          <mxGeometry relative="1" as="geometry" />
        </mxCell>
        <mxCell id="04BgacQnCNHLsLhZBk7w-21" style="edgeStyle=orthogonalEdgeStyle;rounded=0;orthogonalLoop=1;jettySize=auto;html=1;" edge="1" parent="1" source="04BgacQnCNHLsLhZBk7w-22" target="04BgacQnCNHLsLhZBk7w-39">
          <mxGeometry relative="1" as="geometry" />
        </mxCell>
        <mxCell id="04BgacQnCNHLsLhZBk7w-22" value="Tela de listagem de marcas cadastradas" style="whiteSpace=wrap;html=1;fillColor=#dae8fc;strokeColor=#6c8ebf;fontStyle=1;startSize=30;" vertex="1" parent="1">
          <mxGeometry x="80" y="460" width="120" height="60" as="geometry" />
        </mxCell>
        <mxCell id="04BgacQnCNHLsLhZBk7w-23" value="" style="edgeStyle=orthogonalEdgeStyle;rounded=0;orthogonalLoop=1;jettySize=auto;html=1;" edge="1" parent="1" source="04BgacQnCNHLsLhZBk7w-25" target="04BgacQnCNHLsLhZBk7w-27">
          <mxGeometry relative="1" as="geometry" />
        </mxCell>
        <mxCell id="04BgacQnCNHLsLhZBk7w-24" value="" style="edgeStyle=orthogonalEdgeStyle;rounded=0;orthogonalLoop=1;jettySize=auto;html=1;" edge="1" parent="1" source="04BgacQnCNHLsLhZBk7w-25" target="04BgacQnCNHLsLhZBk7w-28">
          <mxGeometry relative="1" as="geometry" />
        </mxCell>
        <mxCell id="04BgacQnCNHLsLhZBk7w-25" value="Botões" style="rhombus;whiteSpace=wrap;html=1;fillColor=#fff2cc;strokeColor=#d6b656;fontStyle=1;startSize=30;" vertex="1" parent="1">
          <mxGeometry x="400" y="160" width="80" height="80" as="geometry" />
        </mxCell>
        <mxCell id="04BgacQnCNHLsLhZBk7w-26" style="edgeStyle=orthogonalEdgeStyle;rounded=0;orthogonalLoop=1;jettySize=auto;html=1;entryX=0;entryY=0.5;entryDx=0;entryDy=0;" edge="1" parent="1" source="04BgacQnCNHLsLhZBk7w-27" target="04BgacQnCNHLsLhZBk7w-9">
          <mxGeometry relative="1" as="geometry">
            <Array as="points">
              <mxPoint x="300" y="290" />
            </Array>
          </mxGeometry>
        </mxCell>
        <mxCell id="04BgacQnCNHLsLhZBk7w-27" value="Botão para salvar as informações" style="whiteSpace=wrap;html=1;fillColor=#d5e8d4;strokeColor=#82b366;fontStyle=1;startSize=30;" vertex="1" parent="1">
          <mxGeometry x="240" y="170" width="120" height="60" as="geometry" />
        </mxCell>
        <mxCell id="04BgacQnCNHLsLhZBk7w-28" value="Botão pra limpar o modal" style="whiteSpace=wrap;html=1;fillColor=#f5f5f5;strokeColor=#666666;fontStyle=1;startSize=30;fontColor=#333333;" vertex="1" parent="1">
          <mxGeometry x="520" y="170" width="120" height="60" as="geometry" />
        </mxCell>
        <mxCell id="04BgacQnCNHLsLhZBk7w-29" style="edgeStyle=orthogonalEdgeStyle;rounded=0;orthogonalLoop=1;jettySize=auto;html=1;entryX=0.5;entryY=0;entryDx=0;entryDy=0;" edge="1" parent="1" source="04BgacQnCNHLsLhZBk7w-30" target="04BgacQnCNHLsLhZBk7w-31">
          <mxGeometry relative="1" as="geometry" />
        </mxCell>
        <mxCell id="04BgacQnCNHLsLhZBk7w-30" value="Usando a biblioteca dataTables para adicionar a tabela opções de:" style="whiteSpace=wrap;html=1;fontStyle=1;fillColor=#dae8fc;strokeColor=#6c8ebf;" vertex="1" parent="1">
          <mxGeometry x="80" y="560" width="120" height="60" as="geometry" />
        </mxCell>
        <mxCell id="04BgacQnCNHLsLhZBk7w-31" value="Opções" style="swimlane;fontStyle=1;childLayout=stackLayout;horizontal=1;startSize=30;horizontalStack=0;resizeParent=1;resizeParentMax=0;resizeLast=0;collapsible=1;marginBottom=0;whiteSpace=wrap;html=1;fillColor=#dae8fc;strokeColor=#6c8ebf;" vertex="1" parent="1">
          <mxGeometry x="70" y="660" width="140" height="210" as="geometry" />
        </mxCell>
        <mxCell id="04BgacQnCNHLsLhZBk7w-32" value="Barra de Pesquisa" style="text;strokeColor=none;fillColor=none;align=left;verticalAlign=middle;spacingLeft=4;spacingRight=4;overflow=hidden;points=[[0,0.5],[1,0.5]];portConstraint=eastwest;rotatable=0;whiteSpace=wrap;html=1;fontStyle=1" vertex="1" parent="04BgacQnCNHLsLhZBk7w-31">
          <mxGeometry y="30" width="140" height="30" as="geometry" />
        </mxCell>
        <mxCell id="04BgacQnCNHLsLhZBk7w-33" value="Copiar para a área de transferência" style="text;strokeColor=none;fillColor=none;align=left;verticalAlign=middle;spacingLeft=4;spacingRight=4;overflow=hidden;points=[[0,0.5],[1,0.5]];portConstraint=eastwest;rotatable=0;whiteSpace=wrap;html=1;fontStyle=1" vertex="1" parent="04BgacQnCNHLsLhZBk7w-31">
          <mxGeometry y="60" width="140" height="30" as="geometry" />
        </mxCell>
        <mxCell id="04BgacQnCNHLsLhZBk7w-34" value="CSV" style="text;strokeColor=none;fillColor=none;align=left;verticalAlign=middle;spacingLeft=4;spacingRight=4;overflow=hidden;points=[[0,0.5],[1,0.5]];portConstraint=eastwest;rotatable=0;whiteSpace=wrap;html=1;fontStyle=1" vertex="1" parent="04BgacQnCNHLsLhZBk7w-31">
          <mxGeometry y="90" width="140" height="30" as="geometry" />
        </mxCell>
        <mxCell id="04BgacQnCNHLsLhZBk7w-35" value="Exel" style="text;strokeColor=none;fillColor=none;align=left;verticalAlign=middle;spacingLeft=4;spacingRight=4;overflow=hidden;points=[[0,0.5],[1,0.5]];portConstraint=eastwest;rotatable=0;whiteSpace=wrap;html=1;fontStyle=1" vertex="1" parent="04BgacQnCNHLsLhZBk7w-31">
          <mxGeometry y="120" width="140" height="30" as="geometry" />
        </mxCell>
        <mxCell id="04BgacQnCNHLsLhZBk7w-36" value="PDF" style="text;strokeColor=none;fillColor=none;align=left;verticalAlign=middle;spacingLeft=4;spacingRight=4;overflow=hidden;points=[[0,0.5],[1,0.5]];portConstraint=eastwest;rotatable=0;whiteSpace=wrap;html=1;fontStyle=1" vertex="1" parent="04BgacQnCNHLsLhZBk7w-31">
          <mxGeometry y="150" width="140" height="30" as="geometry" />
        </mxCell>
        <mxCell id="04BgacQnCNHLsLhZBk7w-37" value="Imprimir" style="text;strokeColor=none;fillColor=none;align=left;verticalAlign=middle;spacingLeft=4;spacingRight=4;overflow=hidden;points=[[0,0.5],[1,0.5]];portConstraint=eastwest;rotatable=0;whiteSpace=wrap;html=1;fontStyle=1" vertex="1" parent="04BgacQnCNHLsLhZBk7w-31">
          <mxGeometry y="180" width="140" height="30" as="geometry" />
        </mxCell>
        <mxCell id="04BgacQnCNHLsLhZBk7w-38" style="edgeStyle=orthogonalEdgeStyle;rounded=0;orthogonalLoop=1;jettySize=auto;html=1;" edge="1" parent="1" source="04BgacQnCNHLsLhZBk7w-39" target="04BgacQnCNHLsLhZBk7w-44">
          <mxGeometry relative="1" as="geometry" />
        </mxCell>
        <mxCell id="04BgacQnCNHLsLhZBk7w-39" value="Tabela de listagem de tipos" style="swimlane;fontStyle=1;childLayout=stackLayout;horizontal=1;startSize=30;horizontalStack=0;resizeParent=1;resizeParentMax=0;resizeLast=0;collapsible=1;marginBottom=0;whiteSpace=wrap;html=1;fillColor=#dae8fc;strokeColor=#6c8ebf;" vertex="1" parent="1">
          <mxGeometry x="240" y="460" width="140" height="150" as="geometry" />
        </mxCell>
        <mxCell id="04BgacQnCNHLsLhZBk7w-40" value="Id" style="text;strokeColor=none;fillColor=none;align=left;verticalAlign=middle;spacingLeft=4;spacingRight=4;overflow=hidden;points=[[0,0.5],[1,0.5]];portConstraint=eastwest;rotatable=0;whiteSpace=wrap;html=1;fontStyle=1" vertex="1" parent="04BgacQnCNHLsLhZBk7w-39">
          <mxGeometry y="30" width="140" height="30" as="geometry" />
        </mxCell>
        <mxCell id="04BgacQnCNHLsLhZBk7w-41" value="Descrição" style="text;strokeColor=none;fillColor=none;align=left;verticalAlign=middle;spacingLeft=4;spacingRight=4;overflow=hidden;points=[[0,0.5],[1,0.5]];portConstraint=eastwest;rotatable=0;whiteSpace=wrap;html=1;fontStyle=1" vertex="1" parent="04BgacQnCNHLsLhZBk7w-39">
          <mxGeometry y="60" width="140" height="30" as="geometry" />
        </mxCell>
        <mxCell id="04BgacQnCNHLsLhZBk7w-42" value="Tipo" style="text;strokeColor=none;fillColor=none;align=left;verticalAlign=middle;spacingLeft=4;spacingRight=4;overflow=hidden;points=[[0,0.5],[1,0.5]];portConstraint=eastwest;rotatable=0;whiteSpace=wrap;html=1;fontStyle=1" vertex="1" parent="04BgacQnCNHLsLhZBk7w-39">
          <mxGeometry y="90" width="140" height="30" as="geometry" />
        </mxCell>
        <mxCell id="04BgacQnCNHLsLhZBk7w-43" value="Status" style="text;strokeColor=none;fillColor=none;align=left;verticalAlign=middle;spacingLeft=4;spacingRight=4;overflow=hidden;points=[[0,0.5],[1,0.5]];portConstraint=eastwest;rotatable=0;whiteSpace=wrap;html=1;fontStyle=1" vertex="1" parent="04BgacQnCNHLsLhZBk7w-39">
          <mxGeometry y="120" width="140" height="30" as="geometry" />
        </mxCell>
        <mxCell id="04BgacQnCNHLsLhZBk7w-44" value="Ações" style="swimlane;fontStyle=1;childLayout=stackLayout;horizontal=1;startSize=30;horizontalStack=0;resizeParent=1;resizeParentMax=0;resizeLast=0;collapsible=1;marginBottom=0;whiteSpace=wrap;html=1;fillColor=#dae8fc;strokeColor=#6c8ebf;" vertex="1" parent="1">
          <mxGeometry x="424.5" y="460" width="140" height="150" as="geometry" />
        </mxCell>
        <mxCell id="04BgacQnCNHLsLhZBk7w-45" value="Ativar" style="text;strokeColor=none;fillColor=none;align=left;verticalAlign=middle;spacingLeft=4;spacingRight=4;overflow=hidden;points=[[0,0.5],[1,0.5]];portConstraint=eastwest;rotatable=0;whiteSpace=wrap;html=1;fontStyle=1" vertex="1" parent="04BgacQnCNHLsLhZBk7w-44">
          <mxGeometry y="30" width="140" height="30" as="geometry" />
        </mxCell>
        <mxCell id="04BgacQnCNHLsLhZBk7w-46" value="Inativar" style="text;strokeColor=none;fillColor=none;align=left;verticalAlign=middle;spacingLeft=4;spacingRight=4;overflow=hidden;points=[[0,0.5],[1,0.5]];portConstraint=eastwest;rotatable=0;whiteSpace=wrap;html=1;fontStyle=1" vertex="1" parent="04BgacQnCNHLsLhZBk7w-44">
          <mxGeometry y="60" width="140" height="30" as="geometry" />
        </mxCell>
        <mxCell id="04BgacQnCNHLsLhZBk7w-47" value="Remover" style="text;strokeColor=none;fillColor=none;align=left;verticalAlign=middle;spacingLeft=4;spacingRight=4;overflow=hidden;points=[[0,0.5],[1,0.5]];portConstraint=eastwest;rotatable=0;whiteSpace=wrap;html=1;fontStyle=1" vertex="1" parent="04BgacQnCNHLsLhZBk7w-44">
          <mxGeometry y="90" width="140" height="30" as="geometry" />
        </mxCell>
        <mxCell id="04BgacQnCNHLsLhZBk7w-48" value="Alterar" style="text;strokeColor=none;fillColor=none;align=left;verticalAlign=middle;spacingLeft=4;spacingRight=4;overflow=hidden;points=[[0,0.5],[1,0.5]];portConstraint=eastwest;rotatable=0;whiteSpace=wrap;html=1;fontStyle=1" vertex="1" parent="04BgacQnCNHLsLhZBk7w-44">
          <mxGeometry y="120" width="140" height="30" as="geometry" />
        </mxCell>
        <mxCell id="04BgacQnCNHLsLhZBk7w-49" value="Usando Update na coluna Status no Banco de dados" style="whiteSpace=wrap;html=1;fontStyle=1;fillColor=#dae8fc;strokeColor=#6c8ebf;" vertex="1" parent="1">
          <mxGeometry x="610.5" y="490" width="120" height="60" as="geometry" />
        </mxCell>
        <mxCell id="04BgacQnCNHLsLhZBk7w-50" value="Usando Delete na no Banco de dados" style="whiteSpace=wrap;html=1;fontStyle=1;fillColor=#dae8fc;strokeColor=#6c8ebf;" vertex="1" parent="1">
          <mxGeometry x="610.5" y="565" width="120" height="60" as="geometry" />
        </mxCell>
        <mxCell id="04BgacQnCNHLsLhZBk7w-51" style="edgeStyle=orthogonalEdgeStyle;rounded=0;orthogonalLoop=1;jettySize=auto;html=1;entryX=0;entryY=0.5;entryDx=0;entryDy=0;" edge="1" parent="1" source="04BgacQnCNHLsLhZBk7w-47" target="04BgacQnCNHLsLhZBk7w-50">
          <mxGeometry relative="1" as="geometry" />
        </mxCell>
        <mxCell id="04BgacQnCNHLsLhZBk7w-52" value="Usando primeiramente o Select para buscar as informações e depois usar Update para fazer a alteração" style="whiteSpace=wrap;html=1;fontStyle=1;fillColor=#dae8fc;strokeColor=#6c8ebf;" vertex="1" parent="1">
          <mxGeometry x="605.5" y="635" width="130" height="90" as="geometry" />
        </mxCell>
        <mxCell id="04BgacQnCNHLsLhZBk7w-53" style="edgeStyle=orthogonalEdgeStyle;rounded=0;orthogonalLoop=1;jettySize=auto;html=1;entryX=0;entryY=0.25;entryDx=0;entryDy=0;" edge="1" parent="1" source="04BgacQnCNHLsLhZBk7w-45" target="04BgacQnCNHLsLhZBk7w-49">
          <mxGeometry relative="1" as="geometry" />
        </mxCell>
        <mxCell id="04BgacQnCNHLsLhZBk7w-54" style="edgeStyle=orthogonalEdgeStyle;rounded=0;orthogonalLoop=1;jettySize=auto;html=1;entryX=0;entryY=0.75;entryDx=0;entryDy=0;" edge="1" parent="1" source="04BgacQnCNHLsLhZBk7w-46" target="04BgacQnCNHLsLhZBk7w-49">
          <mxGeometry relative="1" as="geometry" />
        </mxCell>
        <mxCell id="04BgacQnCNHLsLhZBk7w-55" style="edgeStyle=orthogonalEdgeStyle;rounded=0;orthogonalLoop=1;jettySize=auto;html=1;entryX=0;entryY=0.5;entryDx=0;entryDy=0;" edge="1" parent="1" source="04BgacQnCNHLsLhZBk7w-48">
          <mxGeometry relative="1" as="geometry">
            <mxPoint x="610.5" y="680" as="targetPoint" />
            <Array as="points">
              <mxPoint x="574.5" y="595" />
              <mxPoint x="574.5" y="680" />
            </Array>
          </mxGeometry>
        </mxCell>
      </root>
    </mxGraphModel>
  </diagram>
</mxfile>
